# xmcd CD database file
# Copyright (C) 1993-1998 Ti Kan
#
# Track frame offsets:
# 150
# 14792
# 32445
# 50917
# 72022
# 86332
# 104320
# 145677
# 164220
# 180240
# 202790
# 219632
# 238830
# 257300
#
# Disc length: 3905 seconds
# Revision: 0
# Processed by: cddbd v1.4b41PL1 Copyright (c) Steve Scherf et al.
# Submitted via: CDSpectrumPro v3.3.331
#
DISCID=bd0f3f0e
DTITLE=The Shoppe - "On Tour"
DYEAR=1900
DGENRE=
TTITLE0=Liza Jane
TTITLE1=Where Do You Go
TTITLE2=It Wasn't Me
TTITLE3=Sh-Boom
TTITLE4=Blue Moon
TTITLE5=The Lion Sleeps Tonight
TTITLE6=Beach Boys Medley
TTITLE7=Desperado
TTITLE8=Ever So Slightly
TTITLE9=Children See Children Do
TTITLE10=Back In The USA
TTITLE11=Sleepwalk
TTITLE12=Bye Bye Blues
TTITLE13=Elvis Medley
EXTD=
EXTT0=
EXTT1=
EXTT2=
EXTT3=
EXTT4=
EXTT5=
EXTT6=
EXTT7=
EXTT8=
EXTT9=
EXTT10=
EXTT11=
EXTT12=
EXTT13=
PLAYORDER=
